<svg width="33" height="33" viewBox="0 0 33 33" fill="none" xmlns="http://www.w3.org/2000/svg">
<path d="M10.472 32.01C4.808 32.0125 0.998381 28.3662 0.995969 22.9422L0.9898 9.07023C0.987388 3.64784 4.79377 0.0125419 10.4578 0.0100229L23.5298 0.00420928C29.1778 0.00169739 32.9874 3.6336 32.9898 9.056L32.996 22.928C32.9984 28.352 29.192 32.0017 23.544 32.0042L10.472 32.01ZM15.6359 22.8557C16.1001 23.3195 16.8681 23.3192 17.3319 22.855C17.7957 22.3748 17.7954 21.6228 17.3312 21.143L13.3614 17.2087L23.5214 17.2042C24.1934 17.2039 24.7212 16.6597 24.7209 16.0037C24.7206 15.3317 24.1924 14.8039 23.5204 14.8042L13.3604 14.8087L17.3266 10.855C17.5505 10.6309 17.6784 10.3108 17.6782 10.0068C17.6781 9.70441 17.5499 9.39887 17.3258 9.15897C16.8616 8.69518 16.0936 8.69552 15.6298 9.15972L9.60051 15.1624C9.15271 15.6106 9.15306 16.4106 9.60126 16.8584L15.6359 22.8557Z" fill="white"/>
</svg>
