<svg xmlns="http://www.w3.org/2000/svg" version="1.1" xmlns:xlink="http://www.w3.org/1999/xlink" xmlns:svgjs="http://svgjs.com/svgjs" width="512" height="512" x="0" y="0" viewBox="0 0 497 497" style="enable-background:new 0 0 512 512" xml:space="preserve" class=""><g><g><g fill="#6cbff8"><path d="m14.275 146.983c-8.068-.38-14.275-7.33-14.275-15.407v-76.576c0-8.284 6.716-15 15-15h76.576c8.077 0 15.027 6.207 15.407 14.275.406 8.614-6.458 15.725-14.983 15.725h-57c-2.761 0-5 2.239-5 5v57c0 8.525-7.111 15.389-15.725 14.983z" fill="#0f6b7e" data-original="#6cbff8" class=""></path><path d="m92 457h-77c-8.284 0-15-6.716-15-15v-76.576c0-8.077 6.207-15.027 14.275-15.407 8.614-.406 15.725 6.458 15.725 14.983v57c0 2.761 2.239 5 5 5h56.576c8.077 0 15.027 6.207 15.407 14.275.406 8.614-6.458 15.725-14.983 15.725z" fill="#0f6b7e" data-original="#6cbff8" class=""></path><path d="m481.275 146.983c-8.068-.38-14.275-7.33-14.275-15.407v-56.576c0-2.761-2.239-5-5-5h-56.576c-8.077 0-15.027-6.207-15.407-14.275-.406-8.614 6.458-15.725 14.983-15.725h77c8.284 0 15 6.716 15 15v77c0 8.525-7.111 15.389-15.725 14.983z" fill="#0f6b7e" data-original="#6cbff8" class=""></path><path d="m482 457h-76.576c-8.077 0-15.027-6.207-15.407-14.275-.406-8.614 6.458-15.725 14.983-15.725h57c2.761 0 5-2.239 5-5v-56.576c0-8.077 6.207-15.027 14.275-15.407 8.614-.406 15.725 6.458 15.725 14.983v77c0 8.284-6.716 15-15 15z" fill="#0f6b7e" data-original="#6cbff8" class=""></path></g><path d="m464.432 230.06c9.424 10.499 9.424 26.381 0 36.88-33.508 37.331-117.552 118.336-215.932 118.336s-182.424-81.005-215.932-118.336c-9.424-10.499-9.424-26.381 0-36.88 33.508-37.331 117.552-118.336 215.932-118.336s182.424 81.005 215.932 118.336z" fill="#e6f7fe" data-original="#e6f7fe" class=""></path><path d="m229.85 384.32c-90.25-9.2-165.91-82.43-197.28-117.38-9.43-10.5-9.43-26.38 0-36.88 31.37-34.95 107.03-108.18 197.28-117.38-72.21 23.74-130.67 84.63-157.28 116.19-9.43 11.17-9.43 28.09 0 39.26 26.61 31.56 85.07 92.45 157.28 116.19z" fill="#d3effd" data-original="#d3effd" class=""></path><circle cx="248.5" cy="248.5" fill="#0f6b7e" r="75.5" data-original="#3c6a73" class=""></circle><path d="m310.95 290.95c-13.59 19.95-36.49 33.05-62.45 33.05-41.7 0-75.5-33.8-75.5-75.5 0-25.96 13.1-48.86 33.05-62.45-8.23 12.1-13.05 26.71-13.05 42.45 0 41.7 33.8 75.5 75.5 75.5 15.74 0 30.35-4.82 42.45-13.05z" fill="#2f535a" data-original="#2f535a" class=""></path></g></g></svg>