<svg width="32" height="32" viewBox="0 0 32 32" fill="none" xmlns="http://www.w3.org/2000/svg">
<rect width="32" height="32" rx="10" fill="white"/>
<path d="M13 21.75C12.9 21.75 12.81 21.73 12.71 21.69C12.43 21.58 12.25 21.3 12.25 21V15C12.25 14.59 12.59 14.25 13 14.25C13.41 14.25 13.75 14.59 13.75 15V19.19L14.47 18.47C14.76 18.18 15.24 18.18 15.53 18.47C15.82 18.76 15.82 19.24 15.53 19.53L13.53 21.53C13.39 21.67 13.19 21.75 13 21.75Z" fill="#454CFF"/>
<path d="M12.9999 21.7499C12.8099 21.7499 12.6199 21.6799 12.4699 21.5299L10.4699 19.5299C10.1799 19.2399 10.1799 18.7599 10.4699 18.4699C10.7599 18.1799 11.2399 18.1799 11.5299 18.4699L13.5299 20.4699C13.8199 20.7599 13.8199 21.2399 13.5299 21.5299C13.3799 21.6799 13.1899 21.7499 12.9999 21.7499Z" fill="#454CFF"/>
<path d="M19 26.75H13C7.57 26.75 5.25 24.43 5.25 19V13C5.25 7.57 7.57 5.25 13 5.25H18C18.41 5.25 18.75 5.59 18.75 6C18.75 6.41 18.41 6.75 18 6.75H13C8.39 6.75 6.75 8.39 6.75 13V19C6.75 23.61 8.39 25.25 13 25.25H19C23.61 25.25 25.25 23.61 25.25 19V14C25.25 13.59 25.59 13.25 26 13.25C26.41 13.25 26.75 13.59 26.75 14V19C26.75 24.43 24.43 26.75 19 26.75Z" fill="#454CFF"/>
<path d="M26 14.75H22C18.58 14.75 17.25 13.42 17.25 9.99999V5.99999C17.25 5.69999 17.43 5.41999 17.71 5.30999C17.99 5.18999 18.31 5.25999 18.53 5.46999L26.53 13.47C26.74 13.68 26.81 14.01 26.69 14.29C26.57 14.57 26.3 14.75 26 14.75ZM18.75 7.80999V9.99999C18.75 12.58 19.42 13.25 22 13.25H24.19L18.75 7.80999Z" fill="#454CFF"/>
</svg>
