<svg width="28" height="28" viewBox="0 0 28 28" fill="none" xmlns="http://www.w3.org/2000/svg">
    <path d="M16.4004 12.8008V18.8008" stroke="white" stroke-width="1.5" stroke-linecap="round" />
    <path d="M11.5996 12.8008V18.8008" stroke="white" stroke-width="1.5" stroke-linecap="round" />
    <path
        d="M22.7433 5.4962C23.9362 6.38469 24.7952 7.02517 25.4376 7.58918C26.0717 8.14589 26.4525 8.59278 26.7085 9.07384C27.2299 10.0536 27.25 11.1713 27.25 13.9316V16.0195C27.25 18.868 27.2478 20.9164 27.0028 22.476C26.7633 24.0006 26.306 24.9535 25.4621 25.6757C24.6013 26.4123 23.4373 26.8237 21.5952 27.0356C19.7419 27.2488 17.318 27.25 14 27.25C10.682 27.25 8.25811 27.2488 6.40482 27.0356C4.56266 26.8237 3.39867 26.4123 2.53789 25.6757C1.69396 24.9535 1.23672 24.0006 0.997193 22.476C0.75216 20.9164 0.75 18.868 0.75 16.0195L0.75 13.9316C0.75 11.1713 0.770137 10.0536 1.29148 9.07384C1.54745 8.59278 1.92829 8.14589 2.56238 7.58918C3.20479 7.02517 4.06377 6.38469 5.25666 5.4962C7.4617 3.85385 9.06324 2.66255 10.4379 1.87431C11.7932 1.0972 12.8656 0.75 14 0.75C15.1344 0.75 16.2068 1.0972 17.5621 1.87431C18.9368 2.66255 20.5383 3.85385 22.7433 5.4962Z"
        stroke="white" stroke-width="1.5" />
</svg>