<svg width="24" height="24" viewBox="0 0 24 24" fill="none" xmlns="http://www.w3.org/2000/svg">
<path d="M7.88023 12.07C7.88023 11.66 8.22023 11.32 8.63023 11.32H14.1102V2.86C14.1002 2.38 13.7202 2 13.2402 2C7.35023 2 3.24023 6.11 3.24023 12C3.24023 17.89 7.35023 22 13.2402 22C13.7102 22 14.1002 21.62 14.1002 21.14V12.81H8.63023C8.21023 12.82 7.88023 12.48 7.88023 12.07Z" fill="#292D32"/>
<path d="M20.5401 11.54L17.7001 8.69003C17.4101 8.40003 16.9301 8.40003 16.6401 8.69003C16.3501 8.98003 16.3501 9.46003 16.6401 9.75003L18.2001 11.31H14.1001V12.81H18.1901L16.6301 14.37C16.3401 14.66 16.3401 15.14 16.6301 15.43C16.7801 15.58 16.9701 15.65 17.1601 15.65C17.3501 15.65 17.5401 15.58 17.6901 15.43L20.5301 12.58C20.8301 12.3 20.8301 11.83 20.5401 11.54Z" fill="#292D32"/>
</svg>
