<svg width="24" height="23" viewBox="0 0 24 23" fill="none" xmlns="http://www.w3.org/2000/svg">
    <path
        d="M9.58092 22.2553L9.58206 22.2566C9.73153 22.4273 9.89557 22.5 10.1053 22.5H22.7368C22.9465 22.5 23.1106 22.4273 23.26 22.2566L23.2612 22.2553C23.4141 22.0819 23.5 21.8625 23.5 21.5625V20.2687C23.5 19.8379 23.4104 19.4303 23.2304 19.0411C23.0541 18.66 22.8151 18.3731 22.5161 18.1647C21.6099 17.5462 20.6514 17.0838 19.6396 16.7754C18.6259 16.4676 17.5538 16.3125 16.4211 16.3125C15.2884 16.3125 14.2169 16.4675 13.2042 16.7752L9.58092 22.2553ZM9.58092 22.2553C9.42803 22.0819 9.34211 21.8625 9.34211 21.5625M9.58092 22.2553L9.34211 21.5625M9.34211 21.5625V20.2687M9.34211 21.5625V20.2687M9.34211 20.2687C9.34211 19.8379 9.43171 19.4303 9.61171 19.0411M9.34211 20.2687L9.61171 19.0411M9.61171 19.0411C9.78796 18.66 10.027 18.3731 10.326 18.1647M9.61171 19.0411L10.326 18.1647M10.326 18.1647C11.2322 17.5462 12.1912 17.0838 13.2039 16.7753L10.326 18.1647ZM0.739956 13.6316L0.738815 13.6303C0.585922 13.4569 0.5 13.2375 0.5 12.9375C0.5 12.6375 0.585929 12.4172 0.739385 12.2426C0.888643 12.0727 1.05283 12 1.26316 12H8.84211C9.0522 12 9.21697 12.0726 9.36708 12.2425C9.51965 12.417 9.60526 12.6374 9.60526 12.9375C9.60526 13.238 9.51946 13.4576 9.36714 13.631C9.21666 13.8022 9.05187 13.875 8.84211 13.875H1.26316C1.05346 13.875 0.889419 13.8023 0.739956 13.6316ZM0.739956 7.8816L0.738815 7.88031C0.585921 7.70692 0.5 7.48751 0.5 7.1875C0.5 6.88751 0.585929 6.66724 0.739385 6.4926C0.888643 6.32275 1.05283 6.25 1.26316 6.25H10.4778C10.3699 6.46128 10.274 6.67969 10.19 6.90512C10.0453 7.29186 9.92405 7.69864 9.82589 8.125H1.26316C1.05346 8.125 0.889419 8.05229 0.739956 7.8816ZM16.4211 13.875C15.5218 13.875 14.7609 13.5251 14.1124 12.7871C13.4619 12.0468 13.1316 11.1486 13.1316 10.0625C13.1316 8.97642 13.4619 8.07816 14.1124 7.33786C14.7609 6.59994 15.5218 6.25 16.4211 6.25C17.3203 6.25 18.0812 6.59994 18.7297 7.33785C19.3802 8.07816 19.7105 8.97642 19.7105 10.0625C19.7105 11.1486 19.3802 12.0468 18.7297 12.7871C18.0812 13.5251 17.3203 13.875 16.4211 13.875ZM13.8947 2.375H1.26316C1.05283 2.375 0.888643 2.30225 0.739385 2.13239C0.585929 1.95776 0.5 1.73749 0.5 1.4375C0.5 1.13751 0.585929 0.917242 0.739385 0.742605C0.888643 0.572747 1.05283 0.5 1.26316 0.5H13.8947C14.1049 0.5 14.2696 0.572632 14.4197 0.742572C14.5723 0.917066 14.6579 1.13739 14.6579 1.4375C14.6579 1.73761 14.5723 1.95793 14.4197 2.13243C14.2696 2.30237 14.1049 2.375 13.8947 2.375Z"
        fill="#005EEC" stroke="#005EEC" />
</svg>