<svg width="29" height="29" viewBox="0 0 29 29" fill="none" xmlns="http://www.w3.org/2000/svg">
<rect width="29" height="29" rx="6" fill="#4871F7"/>
<path d="M13.1081 10.0001C13.2077 9.99972 13.3061 10.0217 13.3961 10.0644C13.4861 10.1071 13.5654 10.1694 13.6281 10.2467L16.8481 14.2467C16.9462 14.366 16.9998 14.5156 16.9998 14.6701C16.9998 14.8245 16.9462 14.9741 16.8481 15.0934L13.5148 19.0934C13.4016 19.2295 13.239 19.3152 13.0627 19.3314C12.8864 19.3477 12.7109 19.2932 12.5748 19.1801C12.4386 19.0669 12.353 18.9043 12.3368 18.728C12.3205 18.5517 12.3749 18.3762 12.4881 18.2401L15.4681 14.6667L12.5881 11.0934C12.5066 10.9955 12.4548 10.8764 12.4389 10.75C12.423 10.6236 12.4436 10.4954 12.4983 10.3803C12.553 10.2653 12.6395 10.1684 12.7476 10.101C12.8556 10.0336 12.9807 9.99857 13.1081 10.0001Z" fill="white"/>
</svg>
