<svg xmlns="http://www.w3.org/2000/svg" version="1.1" xmlns:xlink="http://www.w3.org/1999/xlink" xmlns:svgjs="http://svgjs.com/svgjs" width="512" height="512" x="0" y="0" viewBox="0 0 8.4666664 8.4666664" style="enable-background:new 0 0 512 512" xml:space="preserve" class=""><g><g id="layer1" transform="translate(0 -288.533)"><path id="rect3327" d="m5.4652994 289.74852c-.9101095-.0182-1.8488347.50299-2.1063315 1.67897-1.0480283-.35772-1.9943034.34781-1.8960081 1.47433-.54834732.22165-.93379314.75735-.93379314 1.38699 0 .82909.66745764 1.49655 1.49654944 1.49655h1.817977c-.0005028-.50386-.00156-1.51484-.00156-1.70635l-.4263305.15451c-.309286.13329-.5377246-.25618-.2728516-.49868l.8066691-.78393c.1842447-.18424.4043073-.16311.567418 0l.8066691.78393c.264873.2425.03644.63197-.2728516.49868l-.4263316-.15451v1.70635h1.8164264c.8290917 0 1.4965495-.66746 1.4965495-1.49655 0-.61022-.3622006-1.13186-.883667-1.36529 1.010422-1.96983-.2583736-3.14844-1.5885335-3.175z" fill="#0f6b7e" data-original="#75b5ff" class=""></path><path id="path4201" d="m5.4652994 289.74826c-.050696-.001-.1063442.00075-.1570963.003-1.1624136 1.83195.6340498 3.1719 1.7456298 3.1719 1.010422-1.96984-.2583736-3.14844-1.5885335-3.175z" fill="#23b0cd" data-original="#488bff" class=""></path></g></g></svg>